<svg xmlns="http://www.w3.org/2000/svg" viewBox="0 0 101.197 83.577"><defs><style>.cls-1{fill:none;}.cls-2{fill:#231815;}</style></defs><title>logo-ABJ-GL</title><g id="レイヤー_3" data-name="レイヤー 3"><rect class="cls-1" width="101.197" height="83.577"/><rect class="cls-1" x="14.457" y="11.94" width="72.283" height="59.698"/></g><g id="ロゴデータ文字"><path class="cls-2" d="M67.14,33.081l-.047.009c-.061-1.516-.009-6.965-8.61-6.965H44.805v28.3H59.646c9.938,0,8.875-10.253,7.271-12.692a6.08,6.08,0,0,0-2.254-2.045C66.52,38.643,67.14,36.39,67.14,33.081ZM59.1,40.4c3.839.927,2.37,8.694-.822,8.738l-8.151.111a.167.167,0,0,1-.087-.314c2.249-1.422,3.054-6.972.372-8.386-.09-.047-.1-.132,0-.17,2.893-1.3,1.958-7.078-.383-8.471a.167.167,0,0,1,.079-.316l8.151-.111c3.247-.045,4.917,7.936.84,8.743Z"/><path class="cls-2" d="M22.613,56.023l2.621-7.356,5.258,5.76,5.22-5.452,1.763,5.452h6.362l-10.013-28.3H27.132l-12.665,35.4h.247l0,0H86.73l-4.483-5.506Zm7.8-23.428L34.02,43.743l-3.443,3.6L26.886,43.3Z"/><path class="cls-2" d="M16.322,18.748l4.483,5.506H80.816V45.23a7.947,7.947,0,0,1-.379,2.919,3.106,3.106,0,0,1-5.185.125,13.022,13.022,0,0,1-.676-4.618V43H68.988v.653a14.582,14.582,0,0,0,1.84,7.882c1.226,1.927,3.684,2.889,7.228,2.889s6.077-1.19,7.453-3.571a11.43,11.43,0,0,0,1.221-5.722V24.254h0V18.748Z"/><path class="cls-2" d="M27.152,71.511V64.805h-.019l-1.23.71-.2-.62,1.55-.87h.709v7.486Z"/><path class="cls-2" d="M31.464,67.793c0-2.618,1.019-3.888,2.418-3.888,1.42,0,2.289,1.34,2.289,3.788,0,2.6-.909,3.938-2.4,3.938C32.413,71.631,31.464,70.292,31.464,67.793Zm3.867-.06c0-1.869-.449-3.158-1.5-3.158-.89,0-1.519,1.189-1.519,3.158s.549,3.219,1.489,3.219C34.911,70.952,35.331,69.512,35.331,67.733Z"/><path class="cls-2" d="M42.491,71.511H38.063V71l.73-.769c1.779-1.8,2.679-2.888,2.679-4.108a1.351,1.351,0,0,0-1.43-1.539,2.5,2.5,0,0,0-1.5.62l-.28-.58A2.925,2.925,0,0,1,40.2,63.9a2,2,0,0,1,2.109,2.128c0,1.41-.99,2.609-2.539,4.168l-.589.62v.02h3.308Z"/><path class="cls-2" d="M48.341,67.973a2.112,2.112,0,0,1-1.719.83,2.083,2.083,0,0,1-2.069-2.269,2.455,2.455,0,0,1,2.369-2.629c1.4,0,2.288,1.22,2.288,3.129,0,2.488-1.259,4.217-3.178,4.517a4.4,4.4,0,0,1-.889.07v-.689a3.725,3.725,0,0,0,.769-.051,3.056,3.056,0,0,0,2.459-2.908Zm-2.948-1.489c0,1.01.569,1.689,1.428,1.689a1.506,1.506,0,0,0,1.55-1.219c0-1.439-.53-2.409-1.519-2.409C45.982,64.545,45.393,65.365,45.393,66.484Z"/><path class="cls-2" d="M53.2,71.511V64.805h-.02l-1.23.71-.2-.62,1.549-.87h.71v7.486Z"/><path class="cls-2" d="M57.513,67.793c0-2.618,1.019-3.888,2.419-3.888,1.419,0,2.289,1.34,2.289,3.788,0,2.6-.91,3.938-2.4,3.938C58.462,71.631,57.513,70.292,57.513,67.793Zm3.868-.06c0-1.869-.45-3.158-1.5-3.158-.89,0-1.52,1.189-1.52,3.158s.55,3.219,1.49,3.219C60.961,70.952,61.381,69.512,61.381,67.733Z"/><path class="cls-2" d="M64.022,67.793c0-2.618,1.02-3.888,2.419-3.888,1.419,0,2.289,1.34,2.289,3.788,0,2.6-.91,3.938-2.4,3.938C64.972,71.631,64.022,70.292,64.022,67.793Zm3.869-.06c0-1.869-.451-3.158-1.5-3.158-.89,0-1.52,1.189-1.52,3.158s.55,3.219,1.489,3.219C67.471,70.952,67.891,69.512,67.891,67.733Z"/><path class="cls-2" d="M72.731,71.511V64.805h-.02l-1.23.71-.2-.62,1.549-.87h.71v7.486Z"/><path class="cls-2" d="M18.262,11.948h.567l1.507,4.424h-.567l-.421-1.332H17.716l-.432,1.332h-.529Zm-.384,2.6h1.308l-.644-2.063h-.01Z"/><path class="cls-2" d="M23.14,16.372h-.432v-.508H22.7a.955.955,0,0,1-.907.582c-.735,0-.962-.483-.962-1.171V13.169h.459v2.168a.568.568,0,0,0,.567.644c.557,0,.827-.427.827-1V13.169h.459Z"/><path class="cls-2" d="M24.659,13.169h.556v.464h-.556v1.989c0,.242.059.285.345.285h.211v.465h-.351c-.475,0-.664-.112-.664-.7V13.633h-.475v-.464H24.2v-.961h.459Z"/><path class="cls-2" d="M25.915,11.948h.459V13.64h.011a.923.923,0,0,1,.881-.546c.734,0,.961.484.961,1.171v2.107h-.459V14.2a.568.568,0,0,0-.567-.644c-.557,0-.827.427-.827,1v1.809h-.459Z"/><path class="cls-2" d="M30.313,13.094c.886,0,1.356.738,1.356,1.679s-.47,1.673-1.356,1.673-1.355-.738-1.355-1.673S29.428,13.094,30.313,13.094Zm0,2.887c.481,0,.87-.433.87-1.208s-.389-1.214-.87-1.214-.869.434-.869,1.214S29.833,15.981,30.313,15.981Z"/><path class="cls-2" d="M32.384,13.169h.432v.675h.011a1.018,1.018,0,0,1,1.026-.75v.558c-.74,0-1.01.483-1.01,1.3v1.425h-.459Z"/><path class="cls-2" d="M34.876,12.593h-.459v-.645h.459Zm-.459.576h.459v3.2h-.459Z"/><path class="cls-2" d="M35.555,15.969l1.686-2.336H35.664v-.464h2.171v.359l-1.707,2.379h1.783v.465H35.555Z"/><path class="cls-2" d="M40.948,15.355a1.172,1.172,0,0,1-1.194,1.091c-.891,0-1.312-.706-1.339-1.685,0-.96.551-1.667,1.312-1.667.989,0,1.291,1.06,1.264,1.834H38.9c-.016.558.259,1.053.87,1.053a.7.7,0,0,0,.723-.626Zm-.443-.892a.808.808,0,1,0-1.6,0Z"/><path class="cls-2" d="M44.153,16.372h-.459v-.434h-.011a.911.911,0,0,1-.891.508c-.859,0-1.286-.78-1.286-1.685s.421-1.667,1.275-1.667a1.025,1.025,0,0,1,.9.5h.011V11.948h.459Zm-1.3-.391c.616,0,.854-.607.854-1.208,0-.632-.249-1.214-.88-1.214s-.838.613-.838,1.239C41.992,15.4,42.262,15.981,42.856,15.981Z"/><path class="cls-2" d="M46.819,11.948h1.4a2.049,2.049,0,0,1,1.021.161,1.088,1.088,0,0,1,.454.923,1.03,1.03,0,0,1-.572.991v.013a.994.994,0,0,1,.734,1.066,1.179,1.179,0,0,1-1.172,1.27H46.819Zm.514,1.9h1.026c.583,0,.821-.242.821-.706,0-.613-.378-.7-.821-.7H47.333Zm0,2.026h1.285a.71.71,0,0,0,.724-.793c0-.576-.405-.737-.838-.737H47.333Z"/><path class="cls-2" d="M51.838,13.094c.886,0,1.356.738,1.356,1.679s-.47,1.673-1.356,1.673-1.356-.738-1.356-1.673S50.952,13.094,51.838,13.094Zm0,2.887c.481,0,.87-.433.87-1.208s-.389-1.214-.87-1.214-.869.434-.869,1.214S51.357,15.981,51.838,15.981Z"/><path class="cls-2" d="M55.129,13.094c.886,0,1.356.738,1.356,1.679s-.47,1.673-1.356,1.673-1.356-.738-1.356-1.673S54.243,13.094,55.129,13.094Zm0,2.887c.481,0,.87-.433.87-1.208s-.389-1.214-.87-1.214-.869.434-.869,1.214S54.648,15.981,55.129,15.981Z"/><path class="cls-2" d="M57.242,11.948H57.7v2.621l1.275-1.4h.616l-1.108,1.164,1.189,2.039H59.09L58.134,14.7l-.433.458v1.215h-.459Z"/><path class="cls-2" d="M60.49,15.362c.016.471.373.619.751.619.286,0,.675-.074.675-.477s-.453-.477-.913-.594-.912-.292-.912-.9a.943.943,0,0,1,1.042-.911c.616,0,1.107.223,1.145,1h-.459a.577.577,0,0,0-.648-.539c-.275,0-.595.087-.595.409,0,.378.487.44.913.557.459.118.913.291.913.911,0,.762-.621,1.01-1.188,1.01a1.051,1.051,0,0,1-1.183-1.084Z"/><path class="cls-2" d="M66,13.094c.886,0,1.356.738,1.356,1.679s-.47,1.673-1.356,1.673-1.355-.738-1.355-1.673S65.113,13.094,66,13.094Zm0,2.887c.481,0,.87-.433.87-1.208s-.389-1.214-.87-1.214-.869.434-.869,1.214S65.519,15.981,66,15.981Z"/><path class="cls-2" d="M68.274,13.633h-.469v-.464h.469v-.477a.7.7,0,0,1,.773-.793.993.993,0,0,1,.3.049v.459a.758.758,0,0,0-.259-.044c-.222,0-.352.081-.352.36v.446h.54v.464h-.54v2.739h-.459Z"/><path class="cls-2" d="M73.606,15.269a1.075,1.075,0,0,1-1.139,1.208c-.719,0-1.124-.458-1.124-1.289v-.272h.513V15.1c0,.514.12.879.622.879.469,0,.616-.31.616-.8V11.948h.512Z"/><path class="cls-2" d="M77.038,16.359a.555.555,0,0,1-.329.087c-.238,0-.39-.149-.39-.5a1.173,1.173,0,0,1-.982.5.833.833,0,0,1-.924-.9c0-.725.47-.88.945-.985.508-.112.94-.075.94-.471,0-.459-.329-.533-.621-.533-.389,0-.675.136-.7.607h-.459A1.045,1.045,0,0,1,75.7,13.094c.5,0,1.048.131,1.048.88v1.648c0,.248,0,.359.145.359a.343.343,0,0,0,.141-.031Zm-.745-1.642a2.1,2.1,0,0,1-.832.217c-.3.062-.562.186-.562.576,0,.347.259.471.54.471a.78.78,0,0,0,.854-.725Z"/><path class="cls-2" d="M77.671,13.169h.46V13.6h.011a.909.909,0,0,1,.89-.509c.86,0,1.286.781,1.286,1.685s-.422,1.667-1.275,1.667a1.023,1.023,0,0,1-.9-.5h-.011V17.6h-.46Zm1.3.39c-.616,0-.854.607-.854,1.208,0,.632.248,1.214.881,1.214s.837-.613.837-1.239C79.832,14.141,79.562,13.559,78.968,13.559Z"/><path class="cls-2" d="M83.522,16.359a.553.553,0,0,1-.329.087c-.238,0-.389-.149-.389-.5a1.174,1.174,0,0,1-.983.5.833.833,0,0,1-.924-.9c0-.725.47-.88.946-.985.508-.112.939-.075.939-.471,0-.459-.329-.533-.621-.533-.389,0-.675.136-.7.607h-.459a1.044,1.044,0,0,1,1.182-1.072c.5,0,1.048.131,1.048.88v1.648c0,.248,0,.359.146.359a.342.342,0,0,0,.14-.031Zm-.745-1.642a2.1,2.1,0,0,1-.832.217c-.3.062-.561.186-.561.576,0,.347.259.471.54.471a.78.78,0,0,0,.853-.725Z"/><path class="cls-2" d="M84.14,13.169h.432v.508h.011a.954.954,0,0,1,.907-.583c.735,0,.962.484.962,1.171v2.107h-.46V14.2a.568.568,0,0,0-.566-.644c-.557,0-.827.427-.827,1v1.809H84.14Z"/></g></svg>