<svg xmlns="http://www.w3.org/2000/svg" xmlns:xlink="http://www.w3.org/1999/xlink" width="38.816" height="35" viewBox="0 0 38.816 35">
  <defs>
    <clipPath id="clip-path">
      <path id="vectorMask" d="M25.79,31.316A3.684,3.684,0,1,1,29.474,35,3.683,3.683,0,0,1,25.79,31.316Zm-14.737,0A3.684,3.684,0,1,1,14.737,35,3.684,3.684,0,0,1,11.053,31.316Zm1.842-6a3.686,3.686,0,0,1-3.359-5.2l1.935-4.3.009-.019L5.841,3.684h-4A1.842,1.842,0,1,1,1.842,0H8.19l7.078,15.211H28.652L35.375,3.468a1.842,1.842,0,0,1,3.2,1.83L30.787,18.9H14.128L12.9,21.632H32.241a1.843,1.843,0,0,1,0,3.685Z" fill="#fafdff"/>
    </clipPath>
  </defs>
  <g id="Shopping_Cart" data-name="Shopping Cart" transform="translate(-333 -585)">
    <path id="Mask" d="M25.79,31.316A3.684,3.684,0,1,1,29.474,35,3.683,3.683,0,0,1,25.79,31.316Zm-14.737,0A3.684,3.684,0,1,1,14.737,35,3.684,3.684,0,0,1,11.053,31.316Zm1.842-6a3.686,3.686,0,0,1-3.359-5.2l1.935-4.3.009-.019L5.841,3.684h-4A1.842,1.842,0,1,1,1.842,0H8.19l7.078,15.211H28.652L35.375,3.468a1.842,1.842,0,0,1,3.2,1.83L30.787,18.9H14.128L12.9,21.632H32.241a1.843,1.843,0,0,1,0,3.685Z" transform="translate(333 585)" fill="#fafdff"/>
  </g>
</svg>
