<svg xmlns="http://www.w3.org/2000/svg" width="180.419" height="113.818" viewBox="0 0 180.419 113.818">
  <g id="VisaBlue" transform="translate(-71.8 -85.1)">
    <path id="Path_2" data-name="Path 2" d="M252.219,192.208a6.682,6.682,0,0,1-6.71,6.71h-167a6.682,6.682,0,0,1-6.71-6.71V91.81a6.682,6.682,0,0,1,6.71-6.71h167a6.682,6.682,0,0,1,6.71,6.71Z" transform="translate(0)" fill="#1a1f71"/>
    <path id="Path_3" data-name="Path 3" d="M134.3,98.846l-20.129,47.963H101l-9.94-38.271a5.464,5.464,0,0,0-2.982-4.225A50.03,50.03,0,0,0,75.9,100.337l.248-1.491H97.272a5.622,5.622,0,0,1,5.716,4.97l5.219,27.833,12.923-32.555H134.3Zm51.442,32.306c0-12.674-17.4-13.42-17.4-18.887,0-1.74,1.74-3.479,5.219-3.976a21.626,21.626,0,0,1,12.177,2.237l2.237-10.189A34.741,34.741,0,0,0,176.3,98.1c-12.177,0-20.875,6.461-20.875,15.9,0,6.958,6.213,10.686,10.934,12.923s6.461,3.728,6.461,5.964c0,3.231-3.728,4.722-7.455,4.722a27.665,27.665,0,0,1-12.674-2.982l-2.237,10.437a38.356,38.356,0,0,0,13.668,2.485c12.923,0,21.372-6.461,21.62-16.4m32.306,15.656H229.48l-9.94-47.963H208.853a5.491,5.491,0,0,0-5.219,3.479L185,146.808h12.923L200.4,139.6h15.9Zm-13.917-16.9,6.461-17.893,3.728,17.893ZM151.944,98.846l-10.189,47.963H129.33l10.189-47.963h12.426Z" transform="translate(6.089 19.306)" fill="#fff"/>
  </g>
</svg>
