<svg xmlns="http://www.w3.org/2000/svg" width="1410" height="1410" viewBox="0 0 1410 1410">
  <g id="Check" transform="translate(-951.5 -85.522)">
    <path id="Mask" d="M704.5,1409c-188.188,0-365.11-73.279-498.167-206.336S0,892.688,0,704.5,73.277,339.393,206.333,206.336,516.312,0,704.5,0s365.1,73.278,498.167,206.336S1409,516.312,1409,704.5s-73.276,365.106-206.333,498.165S892.688,1409,704.5,1409Zm0-1291.593c-323.727,0-587.095,263.368-587.095,587.092S380.773,1291.591,704.5,1291.591s587.089-263.368,587.089-587.092S1028.221,117.407,704.5,117.407Zm-141.508,963.41-.04-.042L276.342,794.167a58.754,58.754,0,0,1,83.224-82.956L562.992,914.692l441.155-446.329.212-.211a58.235,58.235,0,0,1,82.324,0,58.928,58.928,0,0,1,.315,82.9l-523.96,529.72Z" transform="translate(952 86.022)" fill="#003456" stroke="#003456" stroke-width="1"/>
  </g>
</svg>
