<svg xmlns="http://www.w3.org/2000/svg" xmlns:xlink="http://www.w3.org/1999/xlink" width="14" height="14" viewBox="0 0 14 14">
  <defs>
    <clipPath id="clip-path">
      <path id="vectorMask" d="M11.295,14H2.706A2.709,2.709,0,0,1,0,11.294V2.705A2.708,2.708,0,0,1,2.706,0h8.589A2.708,2.708,0,0,1,14,2.705v8.588A2.709,2.709,0,0,1,11.295,14ZM1.364,5.563v5.731a1.343,1.343,0,0,0,1.342,1.341h8.588a1.343,1.343,0,0,0,1.342-1.341V5.563H10.545A3.772,3.772,0,0,1,10.829,7,3.829,3.829,0,1,1,3.172,7a3.787,3.787,0,0,1,.282-1.436ZM7,4.536A2.477,2.477,0,0,0,5,5.563a2.462,2.462,0,0,0,2,3.9A2.464,2.464,0,0,0,7,4.536Zm5.38-2.923h-.31l-2.064.006.007,2.373,2.366-.008V1.613Z" transform="translate(0 -0.27)" fill="#fafdff"/>
    </clipPath>
  </defs>
  <g id="intagram" transform="translate(-0.001 0.27)">
    <path id="Combined_Shape2" data-name="Combined Shape2" d="M11.295,14H2.706A2.709,2.709,0,0,1,0,11.294V2.705A2.708,2.708,0,0,1,2.706,0h8.589A2.708,2.708,0,0,1,14,2.705v8.588A2.709,2.709,0,0,1,11.295,14ZM1.364,5.563v5.731a1.343,1.343,0,0,0,1.342,1.341h8.588a1.343,1.343,0,0,0,1.342-1.341V5.563H10.545A3.772,3.772,0,0,1,10.829,7,3.829,3.829,0,1,1,3.172,7a3.787,3.787,0,0,1,.282-1.436ZM7,4.536A2.477,2.477,0,0,0,5,5.563a2.462,2.462,0,0,0,2,3.9A2.464,2.464,0,0,0,7,4.536Zm5.38-2.923h-.31l-2.064.006.007,2.373,2.366-.008V1.613Z" transform="translate(0 -0.27)" fill="#fafdff"/>
  </g>
</svg>
