<svg xmlns="http://www.w3.org/2000/svg" xmlns:xlink="http://www.w3.org/1999/xlink" width="147.313" height="128.403" viewBox="0 0 147.313 128.403">
  <defs>
    <clipPath id="clip-path">
      <path id="vectorMask" d="M48.445,58.825a6.92,6.92,0,1,1,6.92,6.92A6.919,6.919,0,0,1,48.445,58.825Zm-27.682,0a6.92,6.92,0,1,1,6.92,6.92A6.921,6.921,0,0,1,20.763,58.825Zm3.46-11.267a6.924,6.924,0,0,1-6.309-9.763l3.634-8.072.017-.036L10.971,6.92H3.46A3.46,3.46,0,1,1,3.46,0H15.384L28.679,28.573H53.82L66.448,6.515a3.461,3.461,0,0,1,6.007,3.438L57.831,35.493H26.537l-2.315,5.142h36.34a3.461,3.461,0,0,1,0,6.923Z" fill="#fafdff"/>
    </clipPath>
  </defs>
  <g id="Shopping_Cart_Fill" data-name="Shopping Cart Fill" transform="translate(-295.869 -565.757)">
    <path id="Mask" d="M83.592,101.5a11.942,11.942,0,1,1,11.94,11.943A11.938,11.938,0,0,1,83.592,101.5Zm-47.766,0a11.942,11.942,0,1,1,11.94,11.943A11.938,11.938,0,0,1,35.826,101.5ZM41.8,82.057A11.941,11.941,0,0,1,30.909,65.212l6.275-13.93.027-.06L18.931,11.94H5.97A5.97,5.97,0,0,1,5.97,0H26.546L49.488,49.3H92.869l21.79-38.059a5.971,5.971,0,0,1,10.364,5.933L99.792,61.241h-54l-4,8.876h62.7a5.97,5.97,0,1,1,0,11.94Z" transform="translate(295.869 580.715)" fill="#fafdff"/>
    <ellipse id="Ellipse_3" data-name="Ellipse 3" cx="21.5" cy="22" rx="21.5" ry="22" transform="translate(400.182 565.757)" fill="#003456"/>
  </g>
</svg>
