<svg id="twitter" xmlns="http://www.w3.org/2000/svg" xmlns:xlink="http://www.w3.org/1999/xlink" width="22.65" height="15.131" viewBox="0 0 22.65 15.131">
  <defs>
    <clipPath id="clip-path">
      <path id="vectorMask" d="M846.508,464.493l-.037-.025a3.554,3.554,0,0,0-2.716-1.029l-.037-.074.025-.012a3.147,3.147,0,0,0,1.674-.682c.05-.2-.012-.31-.223-.335a5.133,5.133,0,0,0-1.3.322c.5-.322.682-.546.57-.657a2.507,2.507,0,0,0-1.563.757c.2-.347.285-.546.236-.57a3.6,3.6,0,0,0-.695.583,11.173,11.173,0,0,0-1.017,1.3l-.012.025a11.633,11.633,0,0,0-1.4,3.262l-.1.087-.025.012a5.241,5.241,0,0,0-1.451-1.253,16.214,16.214,0,0,0-2.381-1.265,19.892,19.892,0,0,0-3.026-1.277,3.046,3.046,0,0,0,1.662,2.729v.012a3.976,3.976,0,0,0-1.141.174c.074,1.066.831,1.8,2.257,2.2l-.013.025a1.607,1.607,0,0,0-1.377.57,2.494,2.494,0,0,0,2.505,1.327,1.777,1.777,0,0,0-.546.4.84.84,0,0,0-.223.819,1.356,1.356,0,0,0,1.4.645l.037.05-.012.025a5.2,5.2,0,0,1-4.267,1.649l-.025.012A5.436,5.436,0,0,1,830,472.827a10.209,10.209,0,0,0,4.7,3.708,11.144,11.144,0,0,0,6.673.161h.037a10.626,10.626,0,0,0,5.494-3.845,7.635,7.635,0,0,0,1.3-2.9,2.692,2.692,0,0,0,2.443-.98l-.012-.025a4.806,4.806,0,0,1-2.2-.124V468.7q1.786-.2,2.121-1.153a3.3,3.3,0,0,1-2.456.025,5.353,5.353,0,0,0-1.6-3.076" transform="translate(-830 -462)" fill="#fafdff"/>
    </clipPath>
  </defs>
  <path id="Mask" d="M846.508,464.493l-.037-.025a3.554,3.554,0,0,0-2.716-1.029l-.037-.074.025-.012a3.147,3.147,0,0,0,1.674-.682c.05-.2-.012-.31-.223-.335a5.133,5.133,0,0,0-1.3.322c.5-.322.682-.546.57-.657a2.507,2.507,0,0,0-1.563.757c.2-.347.285-.546.236-.57a3.6,3.6,0,0,0-.695.583,11.173,11.173,0,0,0-1.017,1.3l-.012.025a11.633,11.633,0,0,0-1.4,3.262l-.1.087-.025.012a5.241,5.241,0,0,0-1.451-1.253,16.214,16.214,0,0,0-2.381-1.265,19.892,19.892,0,0,0-3.026-1.277,3.046,3.046,0,0,0,1.662,2.729v.012a3.976,3.976,0,0,0-1.141.174c.074,1.066.831,1.8,2.257,2.2l-.013.025a1.607,1.607,0,0,0-1.377.57,2.494,2.494,0,0,0,2.505,1.327,1.777,1.777,0,0,0-.546.4.84.84,0,0,0-.223.819,1.356,1.356,0,0,0,1.4.645l.037.05-.012.025a5.2,5.2,0,0,1-4.267,1.649l-.025.012A5.436,5.436,0,0,1,830,472.827a10.209,10.209,0,0,0,4.7,3.708,11.144,11.144,0,0,0,6.673.161h.037a10.626,10.626,0,0,0,5.494-3.845,7.635,7.635,0,0,0,1.3-2.9,2.692,2.692,0,0,0,2.443-.98l-.012-.025a4.806,4.806,0,0,1-2.2-.124V468.7q1.786-.2,2.121-1.153a3.3,3.3,0,0,1-2.456.025,5.353,5.353,0,0,0-1.6-3.076" transform="translate(-828 -462)" fill="#fafdff"/>
</svg>
